<?xml version="1.0" standalone="no"?>
<!DOCTYPE svg PUBLIC "-//W3C//DTD SVG 20010904//EN"
 "http://www.w3.org/TR/2001/REC-SVG-20010904/DTD/svg10.dtd">
<svg version="1.0" xmlns="http://www.w3.org/2000/svg"
 width="753.000000pt" height="510.000000pt" viewBox="0 0 753.000000 510.000000"
 preserveAspectRatio="xMidYMid meet">

<g transform="translate(0.000000,510.000000) scale(0.100000,-0.100000)"
fill="#000000" stroke="none">
<path d="M3882 4844 c-29 -20 -30 -74 -2 -92 12 -7 25 -10 30 -7 5 3 11 1 14
-4 10 -15 -13 -24 -29 -11 -21 17 -38 3 -25 -21 14 -25 52 -24 75 1 26 29 23
109 -6 133 -26 21 -29 21 -57 1z m48 -36 c0 -22 -17 -41 -29 -34 -19 12 -13
46 9 46 11 0 20 -6 20 -12z"/>
<path d="M3768 4829 c-34 -25 -36 -39 -4 -39 22 0 23 -3 18 -51 -4 -46 -3 -51
14 -47 16 3 19 14 22 81 3 85 -3 92 -50 56z"/>
<path d="M3665 4583 c-389 -10 -567 -18 -585 -26 -37 -18 -53 -57 -39 -97 21
-57 34 -59 414 -50 187 5 534 12 770 16 452 7 471 9 495 53 17 33 11 71 -15
96 l-24 25 -228 -1 c-125 -1 -480 -8 -788 -16z m991 -9 c45 -6 63 -48 36 -83
-15 -21 -29 -27 -68 -29 -116 -6 -1520 -29 -1532 -24 -36 13 -37 73 -2 92 19
10 435 24 1125 38 198 4 371 8 385 9 14 0 39 -1 56 -3z"/>
<path d="M4835 4588 c-47 -27 -46 -25 -41 -352 6 -304 6 -310 28 -334 l23 -24
530 7 530 7 32 24 c38 29 36 22 68 306 27 245 26 265 -22 287 -13 6 -50 11
-82 11 -78 0 -109 -23 -191 -140 -90 -128 -94 -130 -258 -130 -95 0 -141 4
-160 14 -20 11 -45 51 -97 157 -87 177 -89 179 -235 179 -60 0 -114 -6 -125
-12z m245 -28 c11 -6 50 -71 89 -148 96 -191 89 -186 266 -190 189 -4 199 0
294 141 41 61 79 108 95 115 15 7 56 12 91 12 86 0 91 -9 76 -139 -49 -432
-44 -406 -79 -420 -36 -14 -1030 -32 -1055 -19 -10 5 -22 20 -27 33 -5 13 -9
154 -10 313 0 227 2 291 13 300 26 22 207 23 247 2z"/>
<path d="M4977 4312 c-35 -4 -30 -26 7 -30 21 -3 26 -7 21 -20 -21 -51 -33
-102 -24 -107 13 -9 29 4 29 23 0 9 11 41 25 71 14 30 23 56 20 59 -6 7 -40 8
-78 4z"/>
<path d="M2826 4506 c-67 -21 -111 -67 -141 -148 -53 -140 -62 -157 -97 -173
-48 -21 -414 -48 -448 -32 -18 9 -42 46 -82 129 -74 152 -84 159 -213 133
-161 -32 -166 -39 -190 -255 -27 -262 -24 -273 100 -285 39 -4 147 -15 240
-26 407 -45 474 -50 498 -38 31 17 37 28 37 74 1 61 27 106 115 197 265 274
304 318 316 358 11 35 10 42 -6 60 -21 23 -67 25 -129 6z m110 -49 c-9 -43
-36 -76 -229 -273 -178 -182 -204 -221 -206 -300 -2 -60 4 -60 -418 -16 -366
38 -388 41 -405 62 -14 17 -17 34 -13 64 2 23 12 100 20 171 8 72 18 140 20
152 8 34 42 51 139 69 116 22 125 16 182 -100 24 -49 44 -95 44 -102 0 -17 56
-63 85 -70 20 -5 182 8 383 31 88 10 101 25 172 198 39 94 56 112 134 136 78
24 100 18 92 -22z"/>
<path d="M1792 4188 c-17 -17 -15 -64 3 -81 8 -9 24 -13 36 -10 16 4 20 2 17
-8 -3 -9 -16 -13 -38 -11 -39 4 -38 -18 3 -32 42 -15 67 14 67 79 0 57 -12 75
-50 75 -14 0 -31 -5 -38 -12z m55 -34 c8 -21 -13 -42 -28 -27 -13 13 -5 43 11
43 6 0 13 -7 17 -16z"/>
<path d="M3735 4388 c-548 -7 -667 -11 -700 -23 -53 -20 -403 -349 -427 -402
-24 -52 -23 -137 2 -187 14 -29 35 -50 72 -71 28 -16 70 -41 93 -55 23 -14 87
-51 141 -83 54 -32 160 -94 234 -138 74 -44 158 -92 185 -107 l50 -27 425 0
c408 0 426 1 459 20 33 19 95 84 316 333 149 168 141 140 137 442 l-3 255 -30
28 -30 28 -132 -3 c-73 -1 -429 -6 -792 -10z m940 -34 c19 -14 20 -29 24 -253
3 -219 1 -242 -16 -282 -24 -55 -382 -457 -426 -480 -27 -14 -91 -18 -419 -24
-354 -6 -392 -5 -440 11 -29 9 -64 25 -78 34 -22 15 -115 70 -256 151 -23 13
-75 44 -115 68 -41 24 -126 74 -190 112 -128 76 -139 89 -139 175 0 75 17 110
86 174 33 30 111 104 174 164 63 61 132 117 155 126 34 15 86 18 371 23 l331
5 2 -392 c1 -478 5 -541 37 -573 29 -29 56 -29 90 0 l26 23 -1 409 c-1 226 -6
436 -10 468 -5 40 -4 60 3 63 13 5 212 9 536 11 196 2 238 0 255 -13z m-829
-11 c4 -10 11 -216 14 -458 7 -467 6 -485 -39 -485 -45 0 -46 10 -53 473 -7
386 -6 443 7 464 18 27 59 31 71 6z"/>
<path d="M4255 4180 c-23 -25 -13 -37 19 -22 31 14 41 4 19 -21 -17 -18 -17
-19 1 -32 12 -9 16 -20 12 -31 -5 -13 -9 -15 -18 -6 -14 14 -48 16 -48 2 0 -5
11 -17 25 -26 20 -13 31 -15 50 -6 27 13 41 47 26 66 -6 7 -8 27 -5 44 5 24 2
32 -14 41 -30 16 -47 14 -67 -9z"/>
<path d="M3250 4130 c-43 -67 -44 -84 -2 -88 20 -2 32 -9 32 -18 0 -22 16 -17
34 11 9 14 13 31 9 38 -4 7 -10 32 -13 56 -3 25 -10 46 -16 48 -6 2 -26 -19
-44 -47z m25 -39 c-3 -6 -11 -11 -17 -11 -6 0 -6 6 2 15 14 17 26 13 15 -4z"/>
<path d="M4025 3843 c-113 -10 -117 -19 -108 -245 l6 -173 29 -29 29 -29 137
8 c135 7 159 12 196 44 20 17 237 344 249 375 5 12 1 26 -9 37 -16 18 -35 19
-253 17 -130 -1 -254 -3 -276 -5z m509 -32 c4 -5 -45 -90 -109 -188 -145 -225
-142 -223 -317 -223 -153 0 -158 3 -158 93 0 34 -3 105 -6 158 -8 113 -2 147
29 158 32 12 554 14 561 2z"/>
<path d="M3230 3830 c-162 -3 -301 -9 -307 -13 -37 -24 -29 -31 408 -389 82
-68 114 -78 235 -78 87 0 91 1 118 29 l28 29 -2 177 c-1 236 -13 258 -133 253
-29 -1 -185 -5 -347 -8z m433 -38 c22 -24 28 -372 7 -397 -12 -14 -32 -16
-126 -13 -109 3 -113 4 -160 37 -27 19 -51 38 -54 41 -3 3 -61 52 -130 109
-224 185 -260 216 -260 223 0 4 111 9 248 11 136 1 295 3 353 5 90 2 108 -1
122 -16z"/>
<path d="M6734 3733 c-12 -2 -32 -15 -45 -29 -22 -23 -22 -27 -11 -71 7 -25
21 -57 32 -71 33 -41 39 -85 49 -392 6 -162 13 -367 16 -455 14 -396 22 -765
17 -791 -3 -16 -18 -50 -35 -77 -66 -107 -39 -217 52 -217 73 0 130 63 155
171 7 31 9 137 5 315 -4 148 -10 411 -14 584 -3 173 -8 321 -10 327 -3 7 -5
115 -5 240 -1 249 -10 335 -42 402 -29 60 -81 80 -164 64z m99 -34 c63 -28 73
-98 81 -539 4 -173 9 -362 11 -420 3 -58 10 -282 15 -498 11 -423 9 -450 -40
-530 -26 -43 -81 -67 -113 -51 -31 17 -37 28 -37 80 0 35 8 57 31 93 40 60 47
100 43 234 -2 59 -8 231 -14 382 -5 151 -12 379 -16 505 -3 127 -9 302 -13
391 l-7 161 -38 67 c-20 36 -36 76 -34 89 6 39 79 60 131 36z"/>
<path d="M4728 3692 c-10 -4 -113 -99 -229 -212 -116 -113 -225 -213 -243
-222 -28 -16 -86 -19 -470 -28 -242 -6 -455 -7 -475 -4 -42 8 -72 22 -196 91
-252 140 -428 228 -471 237 -29 6 -79 -2 -394 -64 -52 -10 -196 -37 -320 -60
-289 -55 -298 -57 -328 -87 l-25 -25 7 -637 c6 -616 12 -862 22 -908 8 -42 54
-62 205 -87 131 -23 198 -34 459 -80 47 -8 137 -25 200 -36 208 -39 232 -35
410 75 175 108 383 227 423 242 35 12 115 15 497 15 510 1 490 3 570 -73 196
-186 342 -322 378 -353 77 -64 45 -74 697 224 106 49 362 163 528 237 114 51
154 73 173 99 l25 33 -10 293 c-6 161 -13 385 -16 498 -4 113 -11 219 -16 236
-15 47 -54 76 -179 128 -63 27 -144 61 -180 76 -36 15 -105 44 -155 65 -49 20
-140 59 -201 86 -61 26 -156 66 -210 88 -55 22 -164 67 -244 100 -139 59 -189
70 -232 53z m182 -62 c273 -111 1003 -418 1122 -472 27 -12 54 -31 62 -42 9
-15 15 -77 20 -211 3 -104 11 -333 17 -508 12 -312 12 -319 -8 -345 -13 -18
-63 -46 -149 -84 -71 -32 -158 -70 -194 -86 -36 -17 -132 -60 -215 -97 -82
-37 -204 -92 -270 -122 -342 -157 -429 -193 -466 -193 -34 0 -49 11 -189 143
-270 252 -310 287 -346 302 -31 13 -109 15 -493 15 -505 0 -499 1 -609 -68
-26 -16 -103 -62 -172 -102 -69 -41 -164 -97 -212 -126 -128 -76 -112 -75
-453 -15 -93 16 -249 44 -345 61 -96 17 -210 37 -253 45 -107 19 -124 31 -131
97 -6 58 -16 706 -18 1186 -1 341 -3 335 75 347 23 4 110 20 192 35 83 16 213
41 290 55 77 14 181 34 230 44 184 39 215 43 251 36 36 -6 93 -35 329 -164 61
-34 157 -84 215 -113 l104 -53 301 3 c425 5 643 16 679 35 16 9 120 105 230
215 111 110 215 207 231 216 36 19 52 16 175 -34z"/>
<path d="M4755 3429 c-39 -22 -307 -295 -327 -334 -20 -39 -21 -49 -14 -380
10 -519 15 -603 37 -651 13 -26 67 -86 152 -165 72 -68 138 -132 145 -142 18
-23 65 -47 95 -47 32 0 264 199 295 254 27 46 27 -21 1 811 -10 322 -14 375
-29 405 -20 38 -48 66 -158 156 -136 110 -152 117 -197 93z m194 -126 c69 -57
126 -112 135 -131 14 -29 19 -117 33 -580 12 -412 13 -557 4 -589 -11 -45 -26
-60 -179 -192 -55 -46 -92 -71 -108 -71 -32 0 -326 275 -356 334 -20 38 -22
65 -29 341 -4 165 -10 372 -13 460 -5 144 -3 164 14 200 11 23 83 103 169 189
140 139 152 148 180 143 18 -4 81 -48 150 -104z"/>
<path d="M2265 3234 c-74 -21 -194 -54 -421 -117 -178 -49 -165 -18 -165 -398
1 -173 4 -390 8 -484 9 -230 -9 -214 278 -259 50 -8 167 -26 260 -42 184 -29
219 -28 237 11 8 18 8 190 -1 647 -13 695 -10 669 -79 667 -20 -1 -73 -12
-117 -25z m152 -16 c6 -14 11 -157 12 -358 1 -184 4 -337 6 -340 2 -3 5 -131
6 -284 3 -263 2 -279 -16 -292 -10 -8 -26 -12 -34 -10 -29 9 -254 46 -519 86
-147 22 -155 29 -159 142 -1 46 -4 254 -7 464 -3 285 -2 387 7 405 13 26 25
30 257 94 74 21 176 48 225 62 112 31 187 50 201 52 6 1 15 -9 21 -21z"/>
<path d="M1993 2661 c-28 -24 -29 -41 -3 -41 17 0 20 -7 20 -44 0 -47 8 -60
28 -47 7 4 10 23 7 46 -2 22 -4 55 -4 73 -1 37 -15 40 -48 13z"/>
<path d="M2102 2668 c-7 -7 -12 -36 -12 -65 0 -44 4 -55 24 -68 28 -19 54 -10
67 22 22 59 1 123 -41 123 -14 0 -31 -5 -38 -12z m50 -61 c0 -44 -11 -65 -23
-46 -10 17 -12 83 -2 93 12 12 25 -12 25 -47z"/>
<path d="M2833 3160 c-80 -16 -144 -73 -195 -175 -51 -100 -58 -143 -58 -360
0 -220 7 -276 46 -373 60 -150 153 -232 265 -232 67 0 109 21 142 73 71 109
87 256 68 632 -10 206 -16 236 -65 333 -29 57 -53 80 -103 98 -43 15 -43 15
-100 4z m100 -34 c45 -19 64 -43 98 -126 38 -93 47 -181 49 -461 1 -182 -2
-240 -16 -295 -41 -166 -106 -221 -223 -192 -88 22 -173 134 -214 280 -23 81
-31 434 -12 516 49 209 190 333 318 278z"/>
<path d="M5208 3025 c-15 -8 -30 -25 -33 -36 -4 -12 -4 -173 0 -358 7 -354 12
-388 56 -412 12 -6 166 -10 412 -9 366 0 394 1 417 19 l25 18 -3 295 c-2 162
-5 308 -7 324 -2 16 -4 51 -4 77 -1 37 -7 54 -26 72 l-24 25 -393 0 c-325 -1
-398 -3 -420 -15z m811 -22 c27 -22 27 -22 36 -363 3 -140 8 -278 11 -306 4
-39 1 -55 -13 -72 -18 -21 -24 -21 -411 -23 -358 -2 -394 -1 -410 15 -15 15
-18 60 -28 364 -10 293 -9 350 2 369 14 22 17 23 282 25 147 2 321 4 388 6
105 3 123 1 143 -15z"/>
<path d="M5590 2688 c0 -13 -3 -33 -6 -46 -6 -20 -3 -22 27 -20 29 3 34 -1 37
-19 4 -25 -16 -31 -35 -12 -18 18 -35 1 -23 -22 22 -41 100 -12 100 38 0 24
-30 53 -54 53 -9 0 -14 5 -11 10 3 6 17 10 31 10 15 0 24 6 24 15 0 11 -12 15
-45 15 -40 0 -45 -3 -45 -22z"/>
<path d="M3728 2679 c-24 -25 -23 -39 2 -39 17 0 20 -7 20 -50 0 -38 4 -50 15
-50 15 0 17 7 17 55 0 94 -2 105 -19 104 -10 0 -26 -9 -35 -20z"/>
<path d="M3827 2693 c-15 -14 -6 -23 23 -23 34 0 36 -6 15 -46 -20 -38 -20
-84 0 -84 9 0 15 9 15 23 0 12 11 46 25 75 14 30 25 56 25 58 0 7 -96 4 -103
-3z"/>
<path d="M6292 3657 c-28 -30 -29 -51 -2 -42 18 6 20 2 20 -44 0 -39 4 -51 15
-51 12 0 15 16 15 80 0 88 -9 99 -48 57z"/>
<path d="M6395 3664 c-23 -23 -3 -44 25 -26 26 16 30 15 30 -4 0 -9 -16 -34
-35 -56 -20 -21 -33 -43 -30 -48 4 -6 28 -10 56 -10 37 0 49 4 49 15 0 8 -9
15 -20 15 -11 0 -20 5 -20 10 0 6 9 19 20 30 11 11 20 31 20 45 0 41 -63 61
-95 29z"/>
<path d="M7405 3620 c-3 -5 -1 -10 4 -10 6 0 11 5 11 10 0 6 -2 10 -4 10 -3 0
-8 -4 -11 -10z"/>
<path d="M897 3469 c-30 -16 -45 -34 -64 -76 -26 -56 -26 -60 -25 -282 4 -610
13 -1291 18 -1331 14 -106 108 -208 197 -212 87 -5 118 2 148 31 49 50 29 139
-40 179 -60 34 -58 5 -65 764 -8 780 -13 720 65 805 54 59 60 90 23 120 -26
20 -39 23 -124 23 -76 -1 -103 -5 -133 -21z m241 -22 c22 -18 13 -45 -36 -99
-27 -29 -52 -62 -56 -73 -13 -31 -7 -1425 6 -1449 6 -12 35 -44 64 -72 46 -42
54 -56 54 -86 0 -47 -23 -65 -96 -73 -73 -9 -122 12 -168 71 -53 68 -53 69
-60 674 -13 1110 -15 999 14 1050 37 65 73 80 180 73 47 -3 91 -10 98 -16z"/>
<path d="M6340 3410 c-105 -6 -137 -18 -146 -57 -7 -26 1 -226 31 -853 25
-503 22 -480 54 -520 34 -42 89 -63 151 -57 64 6 264 102 281 135 17 31 15
181 -10 767 -19 433 -21 446 -70 488 -54 44 -139 95 -166 98 -16 2 -73 2 -125
-1z m170 -46 l48 -26 6 -102 c3 -55 10 -200 16 -321 6 -121 13 -256 15 -300
13 -191 25 -436 25 -511 l0 -81 -80 -37 c-117 -53 -195 -48 -243 16 -18 24
-21 55 -33 290 -7 145 -15 310 -18 368 -3 58 -8 175 -12 260 -3 85 -8 158 -10
161 -10 17 -5 272 5 282 12 12 89 23 180 26 40 1 65 -5 101 -25z m118 -89 c28
-36 31 -60 42 -415 5 -173 12 -355 15 -405 18 -348 16 -397 -18 -403 -14 -3
-17 4 -17 35 0 21 -9 198 -19 393 -11 195 -22 418 -26 495 -3 77 -8 182 -11
233 -6 99 0 111 34 67z"/>
<path d="M6350 3334 c-59 -21 -100 -73 -100 -127 0 -63 90 -135 154 -123 78
15 126 108 90 175 -31 56 -98 91 -144 75z m96 -58 c38 -38 43 -70 19 -116 -26
-50 -79 -64 -134 -35 -62 31 -66 130 -8 165 48 30 83 26 123 -14z"/>
<path d="M6275 3030 c-6 -10 -3 -99 10 -310 3 -41 10 -153 15 -249 9 -168 13
-192 27 -178 8 9 -27 730 -37 740 -4 5 -11 4 -15 -3z"/>
<path d="M6334 2860 c10 -292 27 -554 37 -564 23 -24 23 -36 -15 643 -3 46
-10 89 -17 95 -9 8 -10 -33 -5 -174z"/>
<path d="M6386 3031 c-4 -6 -5 -14 -3 -18 3 -5 8 -80 12 -168 16 -370 30 -548
43 -553 8 -2 12 7 12 26 0 39 -28 537 -36 632 -6 74 -15 102 -28 81z"/>
<path d="M6451 2958 c0 -46 8 -213 17 -372 13 -227 20 -290 31 -294 11 -4 13
16 7 119 -32 595 -34 629 -47 629 -5 0 -9 -37 -8 -82z"/>
<path d="M6504 2949 c3 -52 11 -188 16 -304 14 -298 19 -345 37 -345 9 0 12 6
9 18 -3 9 -10 134 -17 277 -17 382 -22 438 -38 443 -11 4 -12 -12 -7 -89z"/>
<path d="M6354 2226 c-30 -30 -34 -40 -34 -84 0 -62 32 -106 90 -123 47 -14
79 -7 119 27 54 45 54 117 0 179 -28 32 -36 35 -86 35 -49 0 -59 -4 -89 -34z
m124 3 c47 -16 69 -57 63 -122 0 -10 -13 -29 -27 -42 -59 -55 -173 -10 -174
68 0 39 15 65 53 87 37 23 43 24 85 9z"/>
<path d="M1248 3377 c-33 -27 -35 -37 -8 -37 17 0 20 -7 20 -50 0 -38 4 -50
15 -50 12 0 15 16 15 80 0 44 -3 80 -7 80 -5 -1 -20 -11 -35 -23z"/>
<path d="M1362 3351 c-41 -62 -41 -81 -3 -81 16 0 31 -6 35 -15 8 -22 21 -18
35 11 8 19 9 30 1 39 -6 7 -10 17 -9 21 1 5 1 24 0 42 -2 46 -22 40 -59 -17z
m24 -48 c-11 -11 -19 6 -11 24 8 17 8 17 12 0 3 -10 2 -21 -1 -24z"/>
<path d="M1355 3120 c-49 -16 -124 -39 -165 -52 l-75 -24 2 -492 c2 -529 3
-534 55 -559 23 -11 277 -63 310 -63 9 0 26 12 38 28 22 26 22 32 16 242 -3
118 -9 371 -12 562 -8 434 2 412 -169 358z m136 -155 c4 -82 10 -340 14 -572
6 -394 5 -423 -10 -430 -17 -6 -55 0 -234 35 -129 26 -120 -17 -118 551 l2
476 40 13 c172 58 254 81 275 79 l25 -2 6 -150z"/>
<path d="M1225 3026 c-39 -28 -34 -291 6 -317 18 -12 70 -3 89 17 21 21 21
236 0 279 -18 35 -63 45 -95 21z m74 -38 c13 -34 14 -215 1 -238 -13 -25 -55
-27 -64 -3 -13 34 -18 207 -7 236 14 35 57 38 70 5z"/>
<path d="M1235 2346 c-18 -13 -20 -26 -20 -148 0 -113 3 -138 18 -162 16 -24
23 -27 50 -22 57 11 67 34 66 160 0 61 -5 127 -12 146 -10 30 -17 35 -47 38
-19 2 -44 -4 -55 -12z m80 -46 c13 -58 9 -228 -5 -245 -19 -23 -53 -15 -61 15
-9 32 -11 223 -3 244 4 9 18 16 34 16 23 0 30 -5 35 -30z"/>
<path d="M7077 2782 c-33 -34 -34 -44 -5 -40 19 3 22 -2 25 -41 3 -49 18 -75
28 -49 10 24 1 151 -10 155 -6 2 -23 -9 -38 -25z"/>
<path d="M7185 2780 c-28 -29 -27 -34 7 -31 14 2 18 -8 20 -49 5 -79 23 -59
26 30 3 91 -6 100 -53 50z"/>
<path d="M392 2655 c-25 -25 -22 -48 3 -38 12 4 15 -5 15 -47 0 -44 3 -51 18
-48 14 3 17 15 17 78 0 84 -12 96 -53 55z"/>
<path d="M507 2662 c-24 -27 -23 -104 3 -127 46 -41 109 20 74 73 -13 19 -13
26 -3 32 10 7 10 11 0 24 -18 21 -54 20 -74 -2z m48 -22 c3 -5 -1 -10 -9 -10
-9 0 -16 5 -16 10 0 6 4 10 9 10 6 0 13 -4 16 -10z m3 -62 c-4 -27 -23 -34
-32 -13 -8 21 1 35 20 35 10 0 14 -8 12 -22z"/>
<path d="M3645 1860 c-324 -6 -263 14 -575 -189 -41 -27 -124 -80 -185 -119
-319 -204 -305 -191 -305 -296 0 -84 21 -136 73 -182 23 -19 109 -97 191 -172
88 -81 165 -144 190 -154 38 -16 87 -17 616 -13 642 6 1035 14 1057 22 35 13
40 53 36 248 -6 265 -15 329 -50 375 -15 21 -113 130 -217 242 -138 148 -202
209 -235 225 -51 25 -28 25 -596 13z m591 -38 c17 -9 94 -84 171 -167 77 -82
168 -179 201 -215 95 -100 95 -99 104 -370 5 -129 7 -245 3 -257 -3 -12 -14
-27 -24 -32 -12 -7 -167 -11 -407 -11 -367 -1 -389 0 -386 17 6 46 -21 893
-30 931 -16 65 -74 84 -118 37 l-23 -24 8 -383 c4 -211 10 -426 14 -478 4 -52
7 -96 6 -98 -1 -1 -153 -5 -336 -9 -324 -6 -336 -5 -379 15 -25 11 -65 39 -90
62 -25 23 -81 74 -125 113 -149 134 -187 172 -202 200 -19 37 -22 147 -5 179
8 13 69 60 137 104 68 43 173 111 232 149 276 178 351 223 393 237 37 13 111
16 435 17 351 0 393 -1 421 -17z m-402 -94 c11 -18 16 -119 25 -464 7 -242 9
-452 6 -467 -6 -21 -13 -27 -35 -27 -15 0 -33 6 -39 14 -8 9 -15 117 -21 322
-13 433 -13 617 2 632 19 19 46 14 62 -10z"/>
<path d="M3453 1791 c-60 -8 -106 -32 -153 -81 -8 -8 -73 -67 -145 -131 -71
-64 -161 -146 -200 -182 -67 -63 -69 -66 -52 -84 17 -17 39 -18 375 -15 196 2
365 6 375 8 9 3 24 19 32 35 13 25 15 59 9 215 -7 173 -9 189 -29 212 -19 22
-31 26 -86 28 -35 1 -92 -1 -126 -5z m187 -39 c21 -17 22 -27 27 -202 5 -172
4 -186 -13 -201 -16 -14 -66 -17 -371 -23 -210 -4 -353 -2 -353 3 0 9 42 48
318 296 71 63 141 117 165 127 60 24 197 24 227 0z"/>
<path d="M3937 1769 c-34 -20 -39 -57 -32 -239 8 -173 8 -174 36 -202 l27 -28
281 0 c268 0 282 1 301 20 11 11 20 24 20 29 0 5 -34 57 -75 117 -41 60 -91
133 -111 163 -20 29 -57 75 -83 102 l-47 49 -150 0 c-85 0 -157 -5 -167 -11z
m322 -34 c16 -8 38 -29 49 -47 12 -18 36 -54 54 -79 142 -199 180 -258 173
-269 -4 -6 -114 -10 -284 -10 -267 0 -279 1 -296 20 -16 18 -19 43 -23 194 -4
152 -2 174 13 189 14 14 38 17 151 17 99 0 143 -4 163 -15z"/>
<path d="M4232 1147 c-28 -29 -29 -51 -3 -42 18 5 20 0 23 -47 2 -39 7 -53 18
-53 10 0 15 9 14 28 -1 15 -2 52 -2 82 -2 62 -15 70 -50 32z"/>
<path d="M3352 1148 c-6 -6 -12 -18 -12 -25 0 -16 22 -17 37 -2 13 13 33 4 33
-15 0 -7 -16 -27 -35 -45 -51 -46 -47 -61 20 -61 42 0 55 3 55 15 0 9 -9 15
-25 15 -30 0 -32 11 -5 35 15 14 20 29 18 54 -3 33 -6 36 -38 39 -19 2 -41 -3
-48 -10z"/>
<path d="M6427 1805 c-28 -25 -28 -51 -1 -41 14 6 17 -3 14 -41 -2 -30 19 -68
31 -56 13 13 7 155 -6 159 -5 2 -23 -8 -38 -21z"/>
<path d="M6536 1811 c-21 -23 -4 -40 20 -20 11 9 18 9 26 1 8 -8 7 -13 -5 -18
-21 -8 -22 -34 -2 -34 8 0 15 -8 15 -18 0 -27 -11 -34 -29 -18 -12 11 -21 12
-31 5 -13 -8 -11 -13 9 -29 28 -24 40 -25 69 -4 23 16 30 58 12 69 -6 3 -7 17
-4 29 11 47 -47 74 -80 37z"/>
<path d="M1271 1785 c-36 -31 -39 -45 -11 -45 17 0 20 -7 20 -44 0 -44 16 -69
29 -47 7 10 4 152 -3 159 -2 1 -18 -9 -35 -23z"/>
<path d="M1366 1765 c-9 -45 -4 -53 34 -47 25 4 30 1 30 -16 0 -28 -15 -35
-39 -20 -25 15 -39 3 -25 -20 26 -41 94 -14 94 38 0 30 -16 50 -42 50 -10 0
-18 5 -18 10 0 6 11 10 25 10 16 0 25 6 25 15 0 11 -11 15 -39 15 -36 0 -39
-2 -45 -35z"/>
<path d="M2310 1294 c-52 -8 -135 -18 -185 -23 -141 -14 -406 -51 -448 -62
-68 -18 -68 -31 -23 -359 19 -144 34 -159 181 -184 122 -21 155 -1 206 123 46
113 69 149 99 160 26 9 201 2 368 -15 105 -10 114 -20 192 -213 10 -25 33 -59
53 -77 34 -32 117 -64 164 -64 23 0 63 32 63 50 0 43 -49 103 -236 290 -210
212 -224 231 -224 308 0 45 -38 82 -82 81 -18 -1 -76 -8 -128 -15z m161 -24
c13 -7 19 -21 19 -44 0 -85 21 -114 230 -320 110 -107 206 -209 215 -226 20
-39 11 -70 -20 -70 -38 0 -117 30 -144 54 -22 19 -78 128 -96 186 -12 38 -43
79 -74 94 -16 9 -92 19 -196 26 -94 6 -188 13 -209 15 -25 2 -53 -3 -76 -15
-39 -20 -49 -36 -110 -183 -40 -94 -65 -113 -132 -97 -24 5 -58 10 -76 10 -40
0 -88 23 -101 49 -12 21 -51 315 -51 379 0 35 4 44 23 52 12 5 155 26 317 46
162 20 318 39 345 44 74 11 114 11 136 0z"/>
<path d="M1823 1068 c-5 -7 -9 -40 -9 -73 1 -53 4 -61 26 -72 20 -10 29 -10
45 1 28 19 31 132 4 147 -25 13 -55 11 -66 -3z m50 -33 c1 -5 -6 -11 -15 -13
-11 -2 -18 3 -18 13 0 17 30 18 33 0z m3 -56 c10 -17 -13 -36 -27 -22 -12 12
-4 33 11 33 5 0 12 -5 16 -11z"/>
<path d="M4950 1283 c-91 -4 -108 -10 -128 -42 -15 -25 -16 -47 -11 -192 4
-90 7 -223 8 -296 1 -75 6 -143 12 -157 20 -43 63 -56 172 -51 130 6 150 17
192 108 18 40 49 107 68 149 49 106 55 109 225 111 168 2 163 5 267 -132 89
-117 113 -133 206 -133 64 0 75 3 97 26 26 25 26 26 14 103 -6 43 -13 87 -15
98 -6 27 -15 82 -22 125 -29 194 -38 225 -71 258 l-33 33 -458 -3 c-252 -1
-487 -4 -523 -5z m999 -45 c12 -12 23 -38 26 -57 3 -20 10 -61 15 -91 68 -401
66 -382 46 -399 -23 -20 -84 -24 -134 -10 -42 12 -63 31 -127 119 -61 85 -98
120 -134 131 -21 6 -94 9 -178 7 -140 -3 -142 -3 -171 -31 -16 -16 -42 -59
-58 -95 -100 -240 -102 -242 -246 -242 -135 1 -131 -4 -139 188 -14 313 -14
459 0 475 17 21 44 22 603 25 l477 2 20 -22z"/>
<path d="M5006 1118 c-16 -23 -20 -66 -10 -104 8 -31 45 -45 75 -30 45 22 32
96 -16 96 -14 0 -25 4 -25 9 0 15 18 23 25 11 12 -20 37 -11 33 13 -5 33 -60
37 -82 5z m56 -100 c-16 -16 -37 4 -28 28 6 16 8 16 23 1 13 -13 15 -19 5 -29z"/>
<path d="M3349 700 c-234 -5 -259 -7 -278 -24 -30 -27 -28 -80 4 -111 l24 -25
313 -2 c282 -1 716 -1 1151 1 158 1 158 1 182 27 35 38 33 79 -6 115 l-31 29
-552 -2 c-303 -2 -666 -5 -807 -8z m1369 -35 c25 -18 29 -52 8 -81 -14 -19
-34 -19 -803 -19 -433 0 -798 3 -811 7 -30 10 -44 47 -27 73 17 28 84 30 915
33 618 2 698 1 718 -13z"/>
<path d="M3872 387 c-28 -30 -29 -51 -2 -42 18 6 20 2 20 -38 0 -42 18 -75 33
-60 17 16 0 163 -18 163 -6 0 -21 -10 -33 -23z"/>
<path d="M3984 402 c-15 -9 -15 -129 0 -140 22 -17 55 -20 75 -5 19 12 20 21
15 71 -4 31 -11 63 -17 70 -10 13 -55 16 -73 4z m48 -37 c0 -5 -5 -11 -11 -13
-6 -2 -11 4 -11 13 0 9 5 15 11 13 6 -2 11 -8 11 -13z m8 -65 c0 -11 -7 -20
-15 -20 -8 0 -15 9 -15 20 0 11 7 20 15 20 8 0 15 -9 15 -20z"/>
</g>
</svg>
