<?xml version="1.0" encoding="UTF-8"?>
<svg xmlns="http://www.w3.org/2000/svg" version="1.1" xmlns:xlink="http://www.w3.org/1999/xlink" viewBox="0 0 500 500">
  <defs>
    <style>
      .cls-1, .cls-2, .cls-3 {
        fill-rule: evenodd;
      }

      .cls-1, .cls-4 {
        fill: #3b5ba6;
      }

      .cls-2 {
        fill: url(#Adsız_degrade_107);
      }

      .cls-5 {
        fill: #3b5aa5;
      }

      .cls-3 {
        fill: url(#Adsız_degrade_95);
      }
    </style>
    <linearGradient id="Adsız_degrade_107" data-name="Adsız degrade 107" x1="198.6" y1="157.6" x2="490.7" y2="157.6" gradientUnits="userSpaceOnUse">
      <stop offset="0" stop-color="#20797d"/>
      <stop offset="1" stop-color="#47b8a8"/>
    </linearGradient>
    <linearGradient id="Adsız_degrade_95" data-name="Adsız degrade 95" x1="8.2" y1="359.7" x2="286.1" y2="359.7" gradientUnits="userSpaceOnUse">
      <stop offset="0" stop-color="#237a7f"/>
      <stop offset="1" stop-color="#47b8a8"/>
    </linearGradient>
  </defs>
  <!-- Generator: Adobe Illustrator 28.7.7, SVG Export Plug-In . SVG Version: 1.2.0 Build 194)  -->
  <g>
    <g id="katman_1">
      <path class="cls-5" d="M357.4,340.8c45.3,39.3,44,37.8,43.3,46.1-.5,6.4-1.6,7.6-39.3,40.3-45.3,39.2-50.6,43.3-55.2,43.3-7.8,0-8.4-2-9.3-25.1l-.8-22-57-1c-32.6-.5-59.8-1.8-63.5-2.8-15-4.1-30.1-13.4-41.2-25-24.9-26.6-28.1-45.6-20.2-125.1,2.1-22.7,6.3-65.3,9.1-94.9,14.7-157.7,13.7-149.1,17.7-152.9,4.1-4.3,8.3-2.8,19.8,7.6,6.1,5.4,18.7,16.5,27.9,24.6,9.1,8.1,17.5,16.7,18.5,19,1.1,2.3,2,8.1,2,12.9,0,7.4-5.8,72.2-14.1,155.7-8.9,91.6-8.9,92.1-.7,99l5.1,4.3h98.3l1.2-7.6c.5-4.3,1-12.4,1-18.2,0-8.4.7-11.2,3.3-13.9,6.3-6.3,5.1-6.9,53.9,35.5Z"/>
      <path class="cls-2" d="M217.6,37.6c-5,.8-11.4,2.3-14,3.3l-5,1.8,7.4,6.9c4.1,3.8,9.1,9.1,11.2,11.7l3.8,4.8,25.9-.3c29.4-.3,44.6,1.8,67.8,10.1,34.7,12.2,62,31.2,85.8,59.8,25.8,30.9,42.1,66.9,43.8,96l.5,9.9-6.4.8c-3.6.5-6.8,1.7-7.1,2.5-.7,2.1,29.3,33.9,32.1,33.9s26.4-28.4,27.3-32.4c.3-2.6-.7-3.1-6.4-3.6l-6.8-.5-2-11.9c-5.9-34.5-23.1-76.5-41.6-101-33.7-44.6-82.3-77-133.4-88.7-16-3.8-66.9-5.6-82.8-3.1Z"/>
      <path class="cls-4" d="M115.5,80.5c1.6,0,1.6,14.2-.2,28.1-1.3,9.9-2.1,11.4-10.7,20.7-21.8,23.3-36.4,50.4-44.5,82.8l-4.9,20-7.6-5.6c-6.4-5.1-8.3-5.6-13.9-4.8l-6.6,1.1,1-8.3c1.5-12.4,11.9-42,20.3-58,13.9-26.1,39.8-57.7,58.3-70.9,4-2.8,7.9-5.1,8.8-5.1Z"/>
      <path class="cls-3" d="M29,244.6c-3.8,4.6-10.4,12.1-14.4,16.4-8.9,9.3-8.6,12.9,1.2,12.9h6.6l1,7.8c3.6,26.4,13.7,56.9,26.8,81,32.9,60.3,85.4,99.7,155,115.5,21.2,4.8,73,5.8,80,1.5,1.2-.7,1.2-2.5,0-5.5-1-2.5-2.1-8.4-2.8-13.4l-1.2-9.1-23.3.5c-58.8,1.2-105.1-17-146.6-57.5-31.1-30.4-46.9-60.2-54.9-103-1.5-8.1-2.3-15.2-1.8-16,.5-.7,3.1-1.8,5.9-2.3,3.3-.8,5-2,5-4.1s-22.5-29.4-27.1-32.1c-1.7-1-4.5,1.2-9.4,7.4Z"/>
      <path class="cls-1" d="M442.7,292.7c-4,21.2-11.7,41-26.9,68.3-3.8,6.8-3.8,6.9-1,15,4.3,11.9,1.8,20-9.4,30.9-6.8,6.6-41.2,36.2-62.1,53.5-7.4,6.1-1,3.6,16.2-6.3,24-13.9,37.4-24.3,54.5-42.1,27.6-29.1,46.6-63.5,56.5-102.6,4.5-18.2,4.5-19.2-1.3-17-6.3,2.5-12.1.8-18.5-5.3-3-2.6-5.5-5-5.6-5-.3,0-1.3,4.8-2.3,10.6Z"/>
    </g>
  </g>
</svg>