<?xml version="1.0" encoding="UTF-8"?>
<svg xmlns="http://www.w3.org/2000/svg" version="1.1" xmlns:xlink="http://www.w3.org/1999/xlink" viewBox="0 0 800 250">
  <defs>
    <style>
      .cls-1, .cls-2, .cls-3, .cls-4 {
        fill-rule: evenodd;
      }

      .cls-1, .cls-5 {
        fill: #3b5ba6;
      }

      .cls-2 {
        fill: url(#Adsız_degrade_107);
      }

      .cls-6 {
        fill: #3b5aa5;
      }

      .cls-3 {
        fill: url(#Adsız_degrade_95);
      }

      .cls-4 {
        fill: #20797d;
      }
    </style>
    <linearGradient id="Adsız_degrade_107" data-name="Adsız degrade 107" x1="112.8" y1="75" x2="268.6" y2="75" gradientUnits="userSpaceOnUse">
      <stop offset="0" stop-color="#20797d"/>
      <stop offset="1" stop-color="#47b8a8"/>
    </linearGradient>
    <linearGradient id="Adsız_degrade_95" data-name="Adsız degrade 95" x1="11.3" y1="182.8" x2="159.5" y2="182.8" gradientUnits="userSpaceOnUse">
      <stop offset="0" stop-color="#237a7f"/>
      <stop offset="1" stop-color="#47b8a8"/>
    </linearGradient>
  </defs>
  <!-- Generator: Adobe Illustrator 28.7.7, SVG Export Plug-In . SVG Version: 1.2.0 Build 194)  -->
  <g>
    <g id="katman_1">
      <path class="cls-6" d="M78.6,201.5c-13.3-14.2-15-24.3-10.8-66.7,1.1-12.1,3.3-34.8,4.8-50.6C80.6,0,80,4.6,82.1,2.6c2.2-2.3,4.4-1.5,10.6,4.1,3.3,2.9,10,8.8,14.9,13.1,4.8,4.3,9.3,8.9,9.9,10.1.6,1.2,1.1,4.3,1.1,6.9,0,4-3.1,38.5-7.5,83-4.8,48.8-4.8,49.1-.4,52.8l2.7,2.3h52.4l.6-4.1c.3-2.3.5-6.6.5-9.7,0-4.5.4-6,1.8-7.4,3.3-3.3,2.7-3.7,28.7,18.9,24.1,21,23.4,20.2,23.1,24.6-.3,3.4-.9,4.1-21,21.5-24.2,20.9-27,23.1-29.4,23.1-4.1,0-4.5-1.1-4.9-13.4l-.4-11.7-30.4-.5c-17.4-.3-31.9-1-33.8-1.5-8-2.2-16-7.1-22-13.3Z"/>
      <path class="cls-2" d="M123,11c-2.6.4-6.1,1.2-7.5,1.8l-2.6,1,4,3.7c2.2,2,4.8,4.8,6,6.3l2,2.6,13.8-.2c15.7-.2,23.8,1,36.1,5.4,18.5,6.5,33.1,16.7,45.7,31.9,13.7,16.5,22.5,35.7,23.4,51.2l.3,5.3-3.4.4c-1.9.3-3.6.9-3.8,1.3-.4,1.1,15.6,18.1,17.1,18.1s14.1-15.2,14.5-17.3c.2-1.4-.4-1.7-3.4-1.9l-3.6-.3-1.1-6.3c-3.2-18.4-12.3-40.8-22.2-53.9-18-23.8-43.9-41.1-71.1-47.3-8.5-2-35.7-3-44.2-1.7Z"/>
      <path class="cls-5" d="M68.5,33.9c.9,0,.9,7.6,0,15-.7,5.3-1.1,6.1-5.7,11-11.6,12.4-19.4,26.9-23.7,44.2l-2.6,10.7-4.1-3c-3.4-2.7-4.4-3-7.4-2.6l-3.5.6.5-4.4c.8-6.6,6.3-22.4,10.8-30.9,7.4-13.9,21.2-30.8,31.1-37.8,2.1-1.5,4.2-2.7,4.7-2.7Z"/>
      <path class="cls-3" d="M22.4,121.4c-2,2.5-5.6,6.4-7.7,8.7-4.8,4.9-4.6,6.9.6,6.9h3.5l.5,4.1c1.9,14.1,7.3,30.3,14.3,43.2,17.5,32.2,45.6,53.1,82.7,61.6,11.3,2.6,39,3.1,42.7.8.6-.4.6-1.3,0-2.9-.5-1.3-1.1-4.5-1.5-7.1l-.6-4.8-12.4.3c-31.4.6-56.1-9.1-78.2-30.7-16.6-16.2-25-32.1-29.3-54.9-.8-4.3-1.2-8.1-1-8.5.3-.4,1.7-1,3.2-1.2,1.8-.4,2.6-1.1,2.6-2.2s-12-15.7-14.5-17.1c-.9-.5-2.4.6-5,4Z"/>
      <path class="cls-1" d="M243,147.1c-2.1,11.3-6.3,21.9-14.4,36.4-2,3.6-2,3.7-.5,8,2.3,6.3,1,10.7-5,16.5-3.6,3.5-21.9,19.3-33.1,28.6-4,3.3-.5,1.9,8.6-3.3,12.8-7.4,19.9-13,29.1-22.5,14.7-15.5,24.9-33.8,30.1-54.7,2.4-9.7,2.4-10.2-.7-9.1-3.3,1.3-6.4.4-9.9-2.8-1.6-1.4-2.9-2.6-3-2.6-.2,0-.7,2.6-1.2,5.6Z"/>
      <path class="cls-5" d="M440.2,148.1c-44.8-14-59.8-68.2-28.1-101.4,8.1-8.5,14.2-12.3,26-16.2,10.8-3.5,28.8-3.9,40.1-1,28.2,7.3,47.1,31,47.3,59.5.2,28.9-16.8,51.2-46,59.7-10.1,2.9-28.9,2.7-39.4-.6ZM450.1,52c-19.6,6-30,27.7-23.5,49.4,3.2,10.2,8.9,17.3,17.5,21.5,5.4,2.7,7.9,3.2,16.1,3,11.2-.1,15.3-1.3,23-6.8,3.9-2.7,6.6-6,9.4-11.8,3.8-7.7,3.9-8.4,3.4-19.8-.4-9-1.1-13.1-3-16.8-3.5-6.8-11-13.9-17.4-16.8-6.2-2.8-19.3-3.8-25.4-1.9Z"/>
      <path class="cls-5" d="M388.9,127c1,.9,0,20.9-1.1,21.6-.7.4-20.4.7-43.9.7-34.3,0-42.8-.4-43.8-1.7-.8-1.1-.6-114.1.1-118.7.1-.1,6.3-.1,13.9,0l13.6.4.6,48,.6,48,29.8.6c16.4.4,29.9.8,30.2,1Z"/>
      <path class="cls-1" d="M530.8,29.8c-.4.7.1,2.8,1.1,4.7s4.5,10.5,7.9,18.8c6.4,16.1,35.4,84.9,38.7,91.8l1.9,4,14.6-.4,14.7-.4,3.3-7.9c1.9-4.4,9.2-21.6,16.4-38.3,14.7-34.5,29.7-71,29.7-72.6s-25.1-1.2-26.5.5c-.6.9-4.4,9-8.1,18-3.9,9-10.6,24.6-14.8,34.7-4.4,10-9,20.9-10.5,24.1-1.3,3.2-2.9,5.6-3.5,5.5-1.3-.5-10.3-20.8-23.5-52.7-5-12-10.1-23.8-11.2-26.1l-2.2-4.3-13.6-.4c-8.1-.2-13.9.1-14.3.9Z"/>
      <path class="cls-1" d="M703.4,29.6c-1.8,1.2-4.1,6-11.9,23.7-3.5,8.3-14.2,32.6-23.7,54.2-9.5,21.5-16.9,39.8-16.5,40.4.5.7,6.4,1.2,13.9,1.2s13.5-.4,14.7-1.8c.7-1,3.3-6.6,5.5-12.4l4-10.7h55.2l4.5,12.2,4.4,12.2,13.9.4c7.7.1,14.3-.1,15-.7s-1.9-7.9-6.1-17.4c-25.9-58.7-38.4-86.6-41.8-93.5l-4-7.9-12.8-.4c-7.1-.1-13.4.1-14.1.6ZM721.8,69.5c6.4,15.4,11.2,27.5,12.2,30.6l.7,2.8h-17.6c-9.7,0-17.8-.4-17.8-1,0-1.6,15-40.5,16.7-43.2q.9-1.5,5.8,10.7Z"/>
      <path class="cls-4" d="M305,181.6c-4.7,2.9-6.6,7.9-4.6,12.5,1.7,4.3,4.9,6.1,14.7,9,10.7,3,13.6,8,7.7,12.8-4,3.2-12,3.4-18.1.5-4.4-2.1-6.2-1.7-5.1,1.2,1,2.6,10.9,4.9,17.9,4.3,8-.9,12.2-4.5,12.2-10.8s-4.9-10.1-14-12.2c-10.8-2.4-14.5-7.9-9-13.4,2.2-2.2,3.5-2.4,9.5-1.9,3.8.4,7.9.9,9.1,1.1s2.6-.2,2.8-1c1.5-4-17.1-5.7-23-2.1Z"/>
      <path class="cls-4" d="M367.9,181.5c-8.4,4.4-11.7,9.9-11.7,19.3s8.1,21.3,22.1,21.3,28.7-19.2,17.9-34.4c-5.2-7.4-19.9-10.6-28.3-6.2ZM390.4,187.5c6.9,6.7,7.8,17.6,1.8,24.7-4.1,5-9.1,6.7-16.7,6.1-5.2-.6-6.9-1.3-10.2-5-7.3-8-6.7-19.2,1.6-26.4,4.1-3.6,4.9-3.9,12-3.4,6.6.4,8.3,1.1,11.4,4Z"/>
      <path class="cls-4" d="M430.5,200.8c0,17.3.4,21.3,1.7,21.3,2.1,0,3.2-3.8,3.2-11.9v-6.3h10.9c8.9,0,10.9-.4,10.9-1.8s-2.1-1.8-10.8-1.8h-10.8l-.5-7.3c-.1-4-.1-7.9,0-8.5.2-.7,5.7-1.2,12.5-1.2,9.9,0,12-.4,12-1.8s-2.4-1.8-14.6-1.8h-14.6v21.3Z"/>
      <path class="cls-4" d="M481.6,181.4c0,1.5,1.6,1.8,7.3,1.8h7.3v19.6c0,17.9.1,19.5,2.2,19.1,1.8-.4,2.1-2.4,2.4-19.5l.4-19.1,6.8-.4c4.1-.2,7.1-1,7.4-1.9.4-1.1-3.5-1.5-16.7-1.5s-17.1.2-17.1,1.8Z"/>
      <path class="cls-4" d="M538.8,181.1c0,1.3,10.5,33.3,12.8,38.8.5,1.2,1.8,2.2,3,2.2,2.1,0,2.3-.5,11.1-25.9,1.5-4.5,3.3-8,4-7.8.6.2,3.5,7.9,6.4,17.1,4.9,15,5.6,16.7,7.9,16.3,2.2-.2,3.8-3.6,9.6-20.4,3.9-11.1,7.1-20.6,7.1-21,.1-.6-.7-.9-1.9-.6-1.3.2-3.6,5.4-7.5,16.9-3,9.1-6.1,16.8-6.8,16.9-.6.1-3.8-7.3-6.9-16.5-7.8-23-8.4-23-15.9.1-3.3,9.7-6.3,17.4-6.9,17s-3.5-8.3-6.7-17.6c-3.8-11.2-6.2-17-7.4-17s-1.7.7-1.7,1.6Z"/>
      <path class="cls-4" d="M639.6,183.4c-.9,2.2-5,11.6-9.2,20.8-4.3,9.1-7.7,17-7.7,17.3,0,.4.9.6,1.8.6s3-2.4,4.5-5.5l2.7-5.5h24.7l2.3,5.1c1.2,2.9,3.3,5.4,4.5,5.6,1.9.4,1.9.1.6-3.2-16.2-36.7-17.4-39.2-19.9-39.2s-3.2,1.2-4.3,3.9ZM649.3,196.2c2.1,4.7,3.8,9.2,3.8,10s-3.4,1.3-9.1,1.3-9.1-.4-9.1-1.7c0-3.4,8.5-20.7,9.6-19.5.6.6,2.8,5,4.9,9.9Z"/>
      <path class="cls-4" d="M692,200.1c0,20.3,1.1,25.8,3.6,19,.7-1.7,1.2-4.7,1.2-6.7s.4-3.8,1-4c.5-.4,3.9-.2,7.8,0,6.7.6,6.9.7,11.3,7.2,2.8,4.1,5.5,6.6,6.9,6.6s1.6-1-2.6-7.1l-4.7-7.1,4.1-4.5c3.4-3.6,4.1-5.5,4.1-9.7,0-10.3-6.1-14.2-22.5-14.2h-10.3v20.6ZM717.6,186.7c6.9,6.9,2.8,17.1-7.1,17.1s-6.7.4-9.1.7l-4.6.9v-22.3h8.6c7.9,0,8.9.2,12.2,3.5Z"/>
      <path class="cls-4" d="M755.5,200.5l.4,21,15.6.4c13.1.2,15.4,0,15.4-1.6s-2.2-1.8-13.4-1.8h-13.4v-15.7l11.2-.4c7.3-.2,11.3-.9,11.6-1.8.4-1.1-2.6-1.6-10.8-1.8l-11.3-.4-.4-7.5-.4-7.5,12.5-.4c17.5-.5,15.6-2.7-2.7-3.2l-14.6-.4.2,21Z"/>
    </g>
  </g>
</svg>